Coordinates
version=1
nRows=17
nColumns=36
inDegrees=yes

Units are S.I. units (second, meters, Newtons, ...)
If the header above contains a line with 'inDegrees', this indicates whether rotational values are in degrees (yes) or radians (no).

endheader
time	pelvis_tilt	pelvis_list	pelvis_rotation	pelvis_tx	pelvis_ty	pelvis_tz	hip_flexion_r	hip_adduction_r	hip_rotation_r	knee_angle_r	knee_angle_r_beta	ankle_angle_r	subtalar_angle_r	mtp_angle_r	hip_flexion_l	hip_adduction_l	hip_rotation_l	knee_angle_l	knee_angle_l_beta	ankle_angle_l	subtalar_angle_l	mtp_angle_l	lumbar_extension	lumbar_bending	lumbar_rotation	arm_flex_r	arm_add_r	arm_rot_r	elbow_flex_r	pro_sup_r	arm_flex_l	arm_add_l	arm_rot_l	elbow_flex_l	pro_sup_l
      3.35000000	    -22.74779747	     -2.31722742	      0.35936349	      0.53040459	      0.73106539	      0.22632891	     75.80005906	     -8.04024880	     -2.25143174	     84.26625167	      1.47072354	     29.72106580	    -11.71563851	     -7.49999987	     74.88970672	    -10.43690761	     -0.55101845	     86.36491632	      1.50735215	     29.25887287	    -20.15606876	     -7.49999987	    -15.11369446	     -1.79523338	      3.64690475	     62.19034726	     -3.91226178	     67.86826888	    129.99781871	     88.52426629	     70.37628962	      4.02146067	     65.29123346	    115.33914368	     93.35689911
      3.36666670	    -21.04470175	     -2.23475064	      0.64930456	      0.55298779	      0.75910817	      0.22591394	     69.92715201	     -8.00760325	     -2.84107475	     79.12333051	      1.38096263	     28.06453755	    -11.63868902	     -7.49999987	     68.88866391	     -9.82832064	     -1.01662462	     81.03575082	      1.41434066	     26.64615857	    -21.23527338	     -7.49999987	    -13.05856828	     -1.97922184	      2.12937738	     63.50116788	     -3.07081397	     66.56656469	    130.06375956	     93.45130336	     71.72358797	      4.32284902	     63.92694849	    116.52251387	     99.94211770
      3.38333330	    -18.99091450	     -2.10178976	      0.95015932	      0.57015823	      0.80446640	      0.22211382	     62.48498551	     -7.94967690	     -3.61646099	     72.24822271	      1.26096937	     25.35878023	    -11.99630296	     -7.49999987	     61.22678785	     -9.23834787	     -1.74503832	     73.85014847	      1.28892824	     23.64871074	    -21.73588432	     -7.49999987	    -11.47524930	     -2.15066406	      1.17722977	     64.84326043	     -3.86379935	     66.72677112	    130.28536150	     91.20520010	     71.48544112	      4.41710882	     63.68050594	    116.64821819	     97.05243132
      3.40000000	    -17.00912411	     -1.88462311	      1.19708745	      0.57365430	      0.83720699	      0.21755507	     55.38087378	     -8.06345729	     -4.52572286	     65.32609862	      1.14015551	     21.84293760	    -12.10879296	     -7.49999987	     53.77787386	     -8.79462481	     -2.73999712	     66.29934622	      1.15714188	     20.07172547	    -21.87127820	     -7.49999987	     -9.38968402	     -2.20444188	      0.02003794	     66.30174338	     -4.07497978	     65.62302648	    130.35052007	     94.90207061	     71.23081973	      4.15700329	     62.22672153	    116.50592432	    100.41498543
      3.41666670	    -14.90657567	     -1.80303983	      1.21011812	      0.58044795	      0.87998067	      0.21941451	     47.98782902	     -7.89922337	     -5.87939817	     57.53640663	      1.00419974	     17.19079883	    -12.45460747	     -7.49999987	     46.33827914	     -8.61416476	     -3.83973885	     58.22065702	      1.01614216	     15.58063590	    -22.17239436	     -7.49999987	     -7.62698029	     -2.23345113	     -0.19022409	     67.66202283	     -5.40390163	     63.36096927	    128.19088075	     91.20910968	     71.29971866	      3.63629976	     60.56866336	    115.88155463	     95.81485724
      3.43333330	    -12.92528233	     -1.85230931	      0.84640241	      0.58825604	      0.93187051	      0.22199918	     39.96109944	     -7.34772226	     -7.96331244	     47.69585439	      0.83244970	     11.21190538	    -12.38800450	     -7.49999987	     38.48286966	     -8.83109859	     -5.68616158	     48.69636116	      0.84991184	      9.62830293	    -22.06399841	     -7.49999987	     -6.65563668	     -2.22502740	      0.13319397	     68.76696090	     -6.25485995	     62.08923757	    126.13218489	     91.10138648	     70.58238105	      2.73676020	     60.16602811	    116.01407114	     95.67434634
      3.45000000	    -10.40826773	     -1.83848420	      0.37862158	      0.59585303	      0.97591971	      0.21869102	     31.22783441	     -6.69012417	    -10.29662984	     36.70390469	      0.64060399	      4.27001305	    -10.95460705	     -7.49999987	     29.06375607	     -8.89235834	     -8.79418465	     36.88438267	      0.64375392	      2.46806538	    -20.34541095	     -7.49999987	     -5.79492241	     -2.14377791	      0.12415177	     69.86641220	     -6.64846776	     62.49115746	    124.80977656	     91.41848748	     69.78608202	      3.08101127	     59.20022951	    115.53563739	     95.69098852
      3.46666670	     -8.22922369	     -1.89982415	     -0.30060617	      0.60889806	      1.02067389	      0.21914140	     22.93302010	     -5.57789280	    -12.32830730	     24.75124925	      0.43199079	     -3.39877334	     -7.87245813	     -7.49999987	     19.90595844	     -8.86916612	    -12.74549004	     24.44527217	      0.42665049	     -5.69142090	    -16.07045843	     -7.49999987	     -4.38780493	     -2.14918884	     -0.02851686	     69.03888460	     -6.38643949	     63.05757177	    126.30625690	     93.06619889	     67.03290641	      2.74365900	     58.63158400	    116.25236268	     97.19877638
      3.48333330	     -6.88775872	     -2.03106194	     -1.33184178	      0.61176612	      1.06912435	      0.21836882	     16.92469443	     -4.28287935	    -14.31068482	     14.51586665	      0.25334967	    -11.73671379	     -3.84790597	     -7.49999987	     12.74639894	     -8.71486320	    -16.44532185	     13.11875150	      0.22896541	    -15.08942689	     -9.90308053	     -7.49999987	     -3.01647305	     -2.38149571	      0.82248277	     67.46362191	     -7.47262029	     62.84044074	    128.28626643	     95.76675878	     64.91543893	      5.01016353	     60.32696655	    116.88982448	    100.37878072
      3.50000000	     -6.19462369	     -2.43895157	     -2.02363484	      0.61820667	      1.13700391	      0.22070599	     13.20317333	     -2.94314838	    -15.72402001	      7.97256307	      0.13914748	    -19.24032890	     -0.17966261	     -7.49999987	      7.97644400	     -8.97795388	    -18.58740668	      5.49626692	      0.09592795	    -22.35164451	     -4.99140061	     -7.49999987	     -1.94575163	     -2.56269093	      1.71499338	     62.86715746	     -8.87599219	     63.90433641	    130.32173527	     91.76911240	     60.76295060	      5.80834711	     63.46500102	    116.98847948	     96.39259311
      3.51666670	     -5.48693976	     -3.15167160	     -1.76136989	      0.62887127	      1.15979542	      0.21238019	     10.46996993	     -1.94671374	    -16.78030442	      4.77519119	      0.08334281	    -23.93709734	      1.70444066	     -7.49999987	      5.11537171	     -9.76532247	    -19.25485813	      1.83832309	      0.03208479	    -25.51371038	     -2.86113604	     -7.49999987	     -1.03854026	     -1.98633822	      1.29077106	     59.82956798	     -9.87915950	     63.11284806	    132.27472997	     90.75145343	     58.47541910	      7.18937190	     64.29166613	    116.07006298	     95.16098019
      3.53333330	     -4.99138230	     -3.79059504	     -1.36669145	      0.62645428	      1.19425743	      0.21693952	      8.58041542	     -1.25113828	    -17.45535093	      3.62978828	      0.06335176	    -27.56966401	      3.08360921	     -7.49999987	      3.78235874	    -10.87065955	    -19.75139039	      0.75845391	      0.01323752	    -27.95981708	     -1.53376997	     -7.49999987	     -0.42684575	     -1.45055835	      0.82768385	     57.77455341	     -9.54900220	     63.64279971	    134.37373193	     89.76346267	     57.41110083	      8.02588772	     65.41845017	    116.38339973	     93.92017058
      3.55000000	     -4.38009056	     -4.37897839	     -0.83813811	      0.62306130	      1.22832544	      0.22230877	      7.04273853	     -0.63033328	    -17.89793431	      3.76718234	      0.06574974	    -30.28680709	      3.70183853	     -7.49999987	      2.74779616	    -11.88406733	    -20.00497435	      0.64832363	      0.01131538	    -31.08521121	     -1.03501062	     -7.49999987	     -0.25150238	     -0.82931623	     -0.05281260	     55.54963414	     -7.95594824	     64.92960880	    134.96709665	     88.23688368	     56.15753047	      7.43375375	     66.14928998	    117.40052422	     91.86434118
      3.56666670	     -3.50828874	     -4.79342423	     -0.25305325	      0.62085090	      1.25503759	      0.21504537	      5.64293552	     -0.46600745	    -17.81664340	      4.91409925	      0.08576721	    -33.02336029	      3.47458765	     -7.49999987	      1.78101387	    -12.32705761	    -20.31354662	      0.80718483	      0.01408803	    -33.43613690	     -0.70138600	     -7.49999987	     -0.71022297	     -0.03696290	     -0.77849942	     53.96651095	     -7.32605855	     65.75532991	    134.48319851	     86.54916722	     55.61080400	      6.90774655	     66.62048179	    118.11568105	     89.60381519
      3.58333330	     -2.63619779	     -5.00109984	      0.11050745	      0.60770866	      1.27912210	      0.20798847	      5.37337996	     -0.80664327	    -17.17070449	      7.22998784	      0.12618709	    -35.01253762	      2.32807236	     -7.49999987	      1.32731796	    -12.50122078	    -20.20255878	      1.50106732	      0.02619857	    -35.28628526	     -0.95042762	     -7.49999987	     -1.91475794	      0.86747703	     -1.53781670	     54.09698875	     -6.73144658	     66.17287914	    133.59766040	     87.82446336	     56.13142866	      6.50251644	     66.98083531	    118.97208960	     90.10263646
      3.60000000	     -2.12631926	     -4.74408192	      0.26533532	      0.60552812	      1.30094938	      0.20738997	      5.50336837	     -1.49817587	    -16.49295541	      8.40926011	      0.14676928	    -35.04787234	      2.01539449	     -7.49999987	      1.28806197	    -12.25475337	    -20.24392631	      2.33334865	      0.04072462	    -35.33147284	     -0.85451630	     -7.49999987	     -3.15228225	      1.25527005	     -2.46451110	     54.21209104	     -6.23470603	     67.00432604	    131.92422787	     85.90413188	     56.08407842	      3.56051828	     65.96758790	    119.33110562	     89.10440099
      3.61666670	     -1.85291234	     -4.49535794	      0.67022614	      0.59501751	      1.31989007	      0.20671301	      6.36627370	     -2.09360820	    -15.59681277	      9.38140159	      0.16373635	    -33.04979753	      2.40180272	     -7.49999987	      2.05711746	    -12.28258064	    -20.61116398	      3.42649207	      0.05980357	    -35.01072882	     -1.23009861	     -7.49999987	     -4.40819958	      1.61460795	     -3.41469409	     54.88980305	     -5.85380188	     66.39022763	    130.82877631	     83.86531290	     56.74233520	      1.42377167	     64.70490839	    119.83766352	     87.01866195
